# xmcd
#
# Track frame offsets:
#	150
#	17925
#	35925
#	54525
#	81677
#	96750
#	113183
#	140327
#	163575
#	191625
#	215025
#	225676
#	256800
#	275625
#
# Disc length: 3842 seconds
#
# Revision: 1
# Processed by: cddbd v1.5.2PL0 Copyright (c) Steve Scherf et al.
# Submitted via: audiograbber 1.83.01
#
DISCID=d40f000e
DTITLE=Nacho Sotomayor - Diamonds Chill Out
DYEAR=2003
DGENRE=House
TTITLE0=Braided Hair
TTITLE1=I don't Care
TTITLE2=Where's johny Sabatino
TTITLE3=Who's you Is Me
TTITLE4=Absolut
TTITLE5=Bi-Pet
TTITLE6=Music is Math
TTITLE7=Atalsina
TTITLE8=Love and Evil
TTITLE9=Peanuts
TTITLE10=Everytime
TTITLE11=To the Angels
TTITLE12=The million euro Weekend
TTITLE13=We Are
EXTD=crg
EXTT0=crg
EXTT1=
EXTT2=
EXTT3=
EXTT4=
EXTT5=
EXTT6=
EXTT7=
EXTT8=
EXTT9=
EXTT10=
EXTT11=
EXTT12=
EXTT13=
PLAYORDER=
